# Blender 3.6.14
# www.blender.org
mtllib server_cosmetics_straw_hat.mtl
o Cube
v -4.544569 1.056327 4.550725
v 4.550725 1.056327 4.550725
v -4.590505 1.056327 -4.590505
v 4.550725 1.056327 -4.544569
v -4.567537 1.056327 -0.019890
v 0.003078 1.056327 4.550725
v 4.550725 1.056327 0.003078
v -0.019890 1.056327 -4.567537
v -0.013544 2.927570 -2.048040
v -4.556053 1.056327 2.265418
v 2.276901 1.056327 4.550725
v 4.550725 1.056327 -2.270746
v -2.305197 1.056327 -4.579021
v -4.579021 1.056327 -2.305197
v -2.270746 1.056327 4.550725
v 4.550725 1.056327 2.276901
v 2.265417 1.056327 -4.556053
v -0.015106 1.056327 -2.668195
v -0.001707 1.056327 2.651382
v -2.668194 1.056327 -0.015106
v 2.651382 1.056327 -0.001706
v 2.654732 1.056327 2.654732
v -2.658145 1.056327 2.648033
v -2.678244 1.056327 -2.678244
v 2.648033 1.056327 -2.658145
v -0.003269 2.927570 2.031228
v -2.048040 2.927570 -0.013543
v 2.031228 2.927570 -0.003268
v 2.033797 2.927570 2.033797
v -2.040334 2.927570 2.028660
v -2.055746 2.927570 -2.055746
v 2.028659 2.927570 -2.040334
v -0.008406 2.927570 -0.008406
vn -0.0000 1.0000 -0.0000
vn 0.9492 0.3146 -0.0012
vn 0.0036 0.3146 -0.9492
vn -0.0012 0.3146 0.9492
vn -0.9492 0.3146 0.0036
vt 0.790600 0.789867
vt 0.998744 0.747487
vt 0.998744 0.996231
vt 0.748744 0.997487
vt 0.207934 0.792066
vt 0.499267 0.790966
vt 0.498744 0.998744
vt 0.248744 1.000000
vt 0.208667 0.412270
vt 0.499267 0.412270
vt 0.499438 0.616974
vt 0.276594 0.616974
vt 0.791333 0.208667
vt 0.998744 0.250000
vt 0.998744 0.498744
vt 0.790966 0.499267
vt 0.499267 0.412270
vt 0.207934 0.412270
vt 0.276032 0.616974
vt 0.499438 0.616974
vt 0.501256 0.001256
vt 0.750000 0.001256
vt 0.500733 0.209034
vt 0.998744 0.001256
vt 0.002513 0.251256
vt 0.210133 0.209400
vt 0.209034 0.500733
vt 0.001256 0.501256
vt 0.003769 0.001256
vt 0.252513 0.001256
vt 0.000000 0.751256
vt -0.001256 1.001256
vt 0.500733 0.412270
vt 0.791333 0.412270
vt 0.723406 0.616974
vt 0.500562 0.616974
vt 0.789867 0.412270
vt 0.722282 0.616974
vt 0.792066 0.412270
vt 0.723968 0.616974
vt 0.210133 0.412270
vt 0.277718 0.616974
vt 0.790600 0.412270
vt 0.722844 0.616974
vt 0.209400 0.412270
vt 0.277156 0.616974
vt 0.723125 0.499438
vt 0.722844 0.722282
vt 0.500000 0.500000
vt 0.277718 0.277156
vt 0.500562 0.276875
vt 0.723406 0.276594
vt 0.276032 0.723968
vt 0.276875 0.500562
vt 0.499438 0.723125
s 0
usemtl Material
f 25/1/1 12/2/1 4/3/1 17/4/1
f 24/5/1 18/6/1 8/7/1 13/8/1
f 22/9/2 21/10/2 28/11/2 29/12/2
f 22/13/1 16/14/1 7/15/1 21/16/1
f 18/17/3 24/18/3 31/19/3 9/20/3
f 6/21/1 11/22/1 22/13/1 19/23/1
f 11/22/1 2/24/1 16/14/1 22/13/1
f 10/25/1 23/26/1 20/27/1 5/28/1
f 1/29/1 15/30/1 23/26/1 10/25/1
f 15/30/1 6/21/1 19/23/1 23/26/1
f 14/31/1 24/5/1 13/8/1 3/32/1
f 5/28/1 20/27/1 24/5/1 14/31/1
f 19/33/4 22/34/4 29/35/4 26/36/4
f 18/6/1 25/1/1 17/4/1 8/7/1
f 21/10/2 25/37/2 32/38/2 28/11/2
f 21/16/1 7/15/1 12/2/1 25/1/1
f 24/39/5 20/33/5 27/36/5 31/40/5
f 23/41/4 19/33/4 26/36/4 30/42/4
f 25/43/3 18/17/3 9/20/3 32/44/3
f 20/33/5 23/45/5 30/46/5 27/36/5
f 28/47/1 32/48/1 33/49/1
f 30/50/1 26/51/1 33/49/1
f 26/51/1 29/52/1 33/49/1
f 31/53/1 27/54/1 33/49/1
f 32/48/1 9/55/1 33/49/1
f 9/55/1 31/53/1 33/49/1
f 27/54/1 30/50/1 33/49/1
f 29/52/1 28/47/1 33/49/1
